<svg xmlns="http://www.w3.org/2000/svg" viewBox="0 0 512 512">
  <defs>
    <linearGradient id="sky" x1="0" y1="0" x2="0" y2="1">
      <stop offset="0" stop-color="#1a2446"/><stop offset=".55" stop-color="#6b3f68"/><stop offset=".85" stop-color="#e07a58"/><stop offset="1" stop-color="#f5b36b"/>
    </linearGradient>
    <linearGradient id="sea" x1="0" y1="0" x2="0" y2="1"><stop offset="0" stop-color="#2f3f68"/><stop offset="1" stop-color="#0f1a2e"/></linearGradient>
    <radialGradient id="sun" cx=".5" cy=".5" r=".5"><stop offset="0" stop-color="#fff1c8"/><stop offset=".4" stop-color="#ffd48a" stop-opacity=".8"/><stop offset="1" stop-color="#ffb070" stop-opacity="0"/></radialGradient>
    <linearGradient id="gem" x1="0" y1="0" x2="1" y2="1"><stop offset="0" stop-color="#ffe0f3"/><stop offset="1" stop-color="#86dccf"/></linearGradient>
  </defs>
  <rect width="512" height="512" fill="url(#sky)"/>
  <circle cx="196" cy="318" r="120" fill="url(#sun)"/>
  <circle cx="196" cy="318" r="34" fill="#ffe7b0"/>
  <path d="M0 330 C90 300 150 318 200 336 L200 352 L0 352Z" fill="#2a2c3e"/>
  <path d="M300 352 C360 280 440 262 512 280 L512 352Z" fill="#20222f"/>
  <rect y="350" width="512" height="162" fill="url(#sea)"/>
  <g stroke="#ffcf96" stroke-opacity=".55" stroke-width="5" stroke-linecap="round">
    <path d="M160 378h72M170 404h52M150 434h92M176 466h40"/>
  </g>
  <g fill="#c23a2b">
    <path d="M-10 342 Q120 250 176 128 L176 136 Q124 262 -10 350Z" opacity=".9"/>
    <path d="M522 342 Q392 250 336 128 L336 136 Q388 262 522 350Z" opacity=".9"/>
    <path d="M190 128 Q256 300 322 128 L322 136 Q256 312 190 136Z" opacity=".9"/>
    <rect x="-10" y="336" width="532" height="14"/>
    <rect x="160" y="96" width="14" height="274"/><rect x="190" y="96" width="14" height="274"/>
    <rect x="308" y="96" width="14" height="274"/><rect x="338" y="96" width="14" height="274"/>
    <rect x="160" y="112" width="44" height="10"/><rect x="160" y="176" width="44" height="10"/><rect x="160" y="244" width="44" height="10"/>
    <rect x="308" y="112" width="44" height="10"/><rect x="308" y="176" width="44" height="10"/><rect x="308" y="244" width="44" height="10"/>
  </g>
  <g transform="translate(256 206)">
    <circle r="46" fill="#86dccf" opacity=".18"/>
    <path d="M0 -44 L22 -18 L22 22 L0 44 L-22 22 L-22 -18Z" fill="url(#gem)"/>
    <path d="M0 -44 L-22 -18 L-4 2Z" fill="#fff" opacity=".6"/>
  </g>
</svg>
